<?xml version="1.0" standalone="no"?>
<!DOCTYPE svg PUBLIC "-//W3C//DTD SVG 1.1//EN" "http://www.w3.org/Graphics/SVG/1.1/DTD/svg11.dtd" >
<svg xmlns="http://www.w3.org/2000/svg">
<metadata></metadata>
<defs>
<font id="novecento_widebook" horiz-adv-x="1677" >
<font-face units-per-em="2048" ascent="1741" descent="-307" />
<missing-glyph horiz-adv-x="512" />
<glyph horiz-adv-x="2048" />
<glyph horiz-adv-x="2048" />
<glyph unicode="&#xd;" horiz-adv-x="2048" />
<glyph unicode=" "  horiz-adv-x="512" />
<glyph unicode="&#x09;" horiz-adv-x="512" />
<glyph unicode="&#xa0;" horiz-adv-x="512" />
<glyph unicode="!" horiz-adv-x="518" d="M201 0v322h116v-322h-116zM201 475v959h116v-959h-116z" />
<glyph unicode="&#x22;" horiz-adv-x="796" d="M201 989v445h116v-445h-116zM479 989v445h119v-445h-119z" />
<glyph unicode="#" horiz-adv-x="1714" d="M61 395l52 99h254l241 473h-256l51 98h256l189 369h113l-187 -369h496l188 369h111l-187 -369h277l-51 -98h-277l-239 -473h276l-51 -99h-275l-200 -395h-117l203 395h-494l-201 -395h-118l202 395h-256zM483 494h494l242 473h-496z" />
<glyph unicode="$" horiz-adv-x="1210" d="M82 391l113 31q13 -146 124 -244t295 -98q176 0 281.5 84t105.5 215q0 43 -13 80.5t-31 64.5t-53 52.5t-61.5 40.5t-76 33t-77 26t-83 23.5t-76.5 21.5q-164 47 -238 88q-179 97 -179 274q0 154 120 258t310 119v158h114v-158q173 -15 294.5 -117t150.5 -262l-115 -30 q-23 141 -129.5 223t-259.5 82q-161 0 -263 -72.5t-102 -196.5q0 -126 159 -201q72 -33 249 -81q44 -12 69.5 -19.5t71 -22.5t74 -28t68.5 -34t65 -42.5t53.5 -51.5t44.5 -62.5t26.5 -74.5t10.5 -89q0 -169 -128.5 -282.5t-338.5 -125.5v-157h-114v157q-195 20 -317 135 t-144 283z" />
<glyph unicode="%" horiz-adv-x="1832" d="M31 1032q0 177 101.5 297.5t268.5 120.5q166 0 268.5 -120.5t102.5 -297.5t-102.5 -297.5t-268.5 -120.5q-167 0 -268.5 120.5t-101.5 297.5zM125 1032q0 -136 76 -230.5t200 -94.5t199.5 94t75.5 231t-75.5 231.5t-199.5 94.5t-200 -95t-76 -231zM387 0l965 1434h92 l-963 -1434h-94zM1061 399q0 177 102 298.5t269 121.5q166 0 268 -121.5t102 -298.5q0 -176 -102 -295.5t-268 -119.5q-111 0 -196.5 56t-130 150t-44.5 209zM1155 399q0 -135 76.5 -229t200.5 -94t199 94t75 229q0 138 -75 233t-199 95t-200.5 -95t-76.5 -233z" />
<glyph unicode="&#x26;" horiz-adv-x="1452" d="M94 393q0 77 26 141t71 107t102 69t121 33v2q-50 7 -98 30.5t-90.5 62t-68.5 98.5t-26 131q0 55 14.5 108t48.5 106t85 92.5t130.5 64t178.5 24.5q191 0 324 -106.5t169 -304.5l-106 -31q-71 338 -387 338q-78 0 -139 -20.5t-97 -51.5t-59.5 -72t-32 -76.5t-8.5 -70.5 q0 -120 93 -197t263 -77h797v-101h-270v-180q0 -262 -126.5 -401.5t-404.5 -139.5q-226 0 -368 117t-142 305zM211 393q0 -140 110.5 -227.5t282.5 -87.5q118 0 200 29.5t129 88.5t67 136t20 184v176h-416q-115 0 -201.5 -31t-139 -99.5t-52.5 -168.5z" />
<glyph unicode="'" horiz-adv-x="518" d="M201 989v445h116v-445h-116z" />
<glyph unicode="(" horiz-adv-x="716" d="M96 719q0 834 510 1018l39 -109q-217 -77 -324.5 -295.5t-107.5 -613.5q0 -397 107.5 -616t324.5 -296l-39 -106q-510 181 -510 1018z" />
<glyph unicode=")" horiz-adv-x="722" d="M78 -193l39 -106q510 181 510 1018q0 834 -510 1018l-39 -109q217 -77 324.5 -295.5t107.5 -613.5q0 -397 -107.5 -616t-324.5 -296z" />
<glyph unicode="*" horiz-adv-x="1079" d="M201 1153l26 82l269 -88v287h88l-4 -287l272 88l27 -82l-273 -82l172 -235l-69 -52l-170 242l-166 -242l-70 52l170 235z" />
<glyph unicode="+" horiz-adv-x="1429" d="M240 678v102h419v412h113v-412h420v-102h-420v-420h-113v420h-419z" />
<glyph unicode="," horiz-adv-x="415" d="M98 -272q45 46 75 109.5t30 125.5l18 10l-18 2q-30 -2 -56 21.5t-26 60.5t26 60.5t64 23.5q36 0 61 -29.5t25 -74.5q0 -86 -40.5 -167.5t-98.5 -141.5h-60z" />
<glyph unicode="-" horiz-adv-x="1353" d="M201 678v102h952v-102h-952z" />
<glyph unicode="." horiz-adv-x="415" d="M123 57q0 35 25 59.5t59 24.5q37 0 61.5 -24.5t24.5 -59.5q0 -36 -25 -61t-61 -25q-35 0 -59.5 25.5t-24.5 60.5z" />
<glyph unicode="/" horiz-adv-x="942" d="M47 0l733 1434h113l-727 -1434h-119z" />
<glyph unicode="0" horiz-adv-x="1470" d="M94 717q0 149 43.5 282.5t122.5 237t202.5 164.5t272.5 61t272.5 -61t202.5 -164.5t122.5 -237t43.5 -282.5q0 -118 -27 -228t-81 -204t-130 -164t-179.5 -110t-223.5 -40t-223.5 40t-179.5 110t-130 164t-81 204t-27 228zM215 717q0 -127 33.5 -239t96.5 -200.5 t163.5 -140t226.5 -51.5q125 0 225.5 51.5t164 139.5t97 201t33.5 239t-33.5 239t-97 201t-164 139.5t-225.5 51.5q-126 0 -226.5 -51.5t-163.5 -140t-96.5 -200.5t-33.5 -239z" />
<glyph unicode="1" horiz-adv-x="808" d="M94 1008l430 426h84v-1434h-116v1051q0 44 2 98.5t3.5 84.5t0.5 30h-2q-1 0 -21 -22t-47.5 -52t-40.5 -43l-217 -213z" />
<glyph unicode="2" horiz-adv-x="1153" d="M88 1085q55 190 189.5 283.5t326.5 93.5q209 0 342 -125.5t133 -318.5q0 -43 -7 -84.5t-16.5 -75.5t-29.5 -70t-35 -61t-44.5 -57.5t-46.5 -51t-52 -48.5t-51 -42.5t-53.5 -42.5t-49.5 -39l-432 -337l2 -3h6q5 1 16 1.5t25.5 1.5t35 1.5t43 1t52 1t60.5 0.5h577v-113 h-981v96q58 49 672 555q85 70 138 164t53 201q0 149 -101 243.5t-258 94.5q-158 0 -261 -77.5t-142 -219.5z" />
<glyph unicode="3" horiz-adv-x="1212" d="M94 383l109 31q22 -151 137.5 -242.5t282.5 -91.5q182 0 278 95.5t96 240.5q0 137 -102.5 207.5t-282.5 70.5h-127v101h129q367 0 367 286q0 47 -19 92t-59 87t-113.5 68t-171.5 26q-310 0 -385 -301l-106 28q38 178 169.5 279.5t326.5 101.5q124 0 220 -33.5t150.5 -89 t81.5 -120t27 -134.5q0 -144 -95 -237.5t-227 -99.5v-3q140 -6 239 -94.5t99 -238.5q0 -132 -64 -233t-176 -154.5t-253 -53.5q-202 0 -351.5 113.5t-179.5 298.5z" />
<glyph unicode="4" horiz-adv-x="1269" d="M94 389v84l805 961h92v-938h205v-107h-205v-389h-114v389h-783zM236 496l2 -2q1 0 103 1t151 1h385v467q0 35 0.5 70t1 64t1 56t1 47t1 34.5t0.5 23.5l1 8h-2q-1 0 -21.5 -28t-60.5 -80t-78 -97l-346 -410q-49 -57 -84 -96t-45 -49z" />
<glyph unicode="5" horiz-adv-x="1183" d="M88 375l109 31q30 -150 137.5 -239t275.5 -89q165 0 273 108t108 271q0 164 -108.5 271.5t-272.5 107.5q-271 0 -360 -201l-103 29l125 770h752v-113h-662l-47 -272q-8 -46 -16 -89.5t-14.5 -73t-11.5 -52.5t-8 -34l-3 -12l2 -2q40 55 133.5 102.5t212.5 47.5 q216 0 358 -135t142 -344t-141.5 -347.5t-356.5 -138.5q-210 0 -349 112t-175 292z" />
<glyph unicode="6" horiz-adv-x="1208" d="M94 467q0 127 42.5 235t139.5 238l377 494h133l-479 -629l2 -2q116 143 328 143q222 0 364 -138t142 -347q0 -212 -149 -351t-376 -139q-228 0 -376 140t-148 356zM213 467q0 -174 113 -281.5t295 -107.5q181 0 293 107.5t114 281.5q3 169 -109 273t-298 104 q-183 0 -295.5 -104.5t-112.5 -272.5z" />
<glyph unicode="7" horiz-adv-x="1124" d="M72 1321v113h1001v-78l-764 -1356h-127l647 1147q22 41 50.5 84.5t45.5 67.5l17 24l-2 2l-12 -1q-13 0 -33 -0.5t-44 -1t-52 -1t-51 -0.5h-676z" />
<glyph unicode="8" horiz-adv-x="1251" d="M94 391q0 106 53.5 189.5t134.5 128.5t175 53v2q-37 2 -85 23.5t-97.5 59.5t-83 101.5t-33.5 138.5q0 158 130.5 266.5t336.5 108.5q207 0 338 -108.5t131 -266.5q0 -75 -34 -138.5t-83.5 -101.5t-97.5 -59.5t-84 -23.5v-2q146 -13 254 -113.5t108 -257.5 q0 -187 -147 -302.5t-385 -117.5q-238 2 -384.5 117.5t-146.5 302.5zM209 393q0 -148 112 -234.5t304 -86.5q193 0 305 86.5t112 234.5q0 144 -111.5 226.5t-305.5 82.5q-193 0 -304.5 -83t-111.5 -226zM264 1085q0 -121 101 -196.5t260 -73.5q160 2 260 77t100 193 q0 125 -100.5 204t-259.5 79q-158 0 -259.5 -80t-101.5 -203z" />
<glyph unicode="9" horiz-adv-x="1222" d="M66 967q0 222 150.5 358.5t381.5 136.5q112 0 208 -32.5t168 -94t113 -156.5t41 -214q0 -137 -66 -272.5t-226 -323.5l-318 -369h-137l537 629l-3 2q-61 -70 -147 -108t-184 -38q-238 0 -378 136.5t-140 345.5zM180 965q0 -95 34.5 -169t93.5 -118.5t132 -67t154 -22.5 q180 0 298 100t118 277q0 100 -34 176.5t-92.5 122t-131.5 68t-158 22.5q-82 0 -155 -23.5t-131.5 -69.5t-93 -122t-34.5 -174z" />
<glyph unicode=":" horiz-adv-x="415" d="M123 57q0 35 25 59.5t59 24.5q37 0 61.5 -24.5t24.5 -59.5q0 -36 -25 -61t-61 -25q-35 0 -59.5 25.5t-24.5 60.5zM123 705q0 35 25 59t59 24q37 0 61.5 -24t24.5 -59q0 -37 -25.5 -62t-60.5 -25t-59.5 25.5t-24.5 61.5z" />
<glyph unicode=";" horiz-adv-x="444" d="M123 -279q44 46 74 109.5t30 126.5l19 10l-19 2q-30 -2 -56 21.5t-26 60.5t26.5 60.5t64.5 23.5q36 0 61 -29.5t25 -74.5q0 -86 -40.5 -168t-99.5 -142h-59zM143 705q0 35 25 59t59 24q37 0 61.5 -24t24.5 -59q0 -37 -25.5 -62t-60.5 -25t-59.5 25.5t-24.5 61.5z" />
<glyph unicode="&#x3c;" horiz-adv-x="1429" d="M227 752l783 -500h172l-779 500l779 499h-172z" />
<glyph unicode="=" horiz-adv-x="1429" d="M240 498v102h952v-102h-952zM240 850v102h952v-102h-952z" />
<glyph unicode="&#x3e;" horiz-adv-x="1429" d="M248 252l778 500l-778 499h172l782 -499l-782 -500h-172z" />
<glyph unicode="?" horiz-adv-x="1165" d="M94 1081q41 181 174 281t330 100q125 0 219 -33.5t148 -91t80 -125.5t26 -145q0 -72 -28 -135.5t-69.5 -108.5t-106 -87t-120.5 -68.5t-131 -55.5v-137h-120v191q252 103 352 190.5t100 208.5q0 41 -10 79t-35 77t-63.5 68t-101 47t-142.5 18q-169 0 -265 -77t-134 -224z M496 0v322h120v-322h-120z" />
<glyph unicode="@" horiz-adv-x="1624" d="M94 725q0 125 34.5 238.5t99 203.5t152 156.5t198.5 102.5t233 36q205 0 369.5 -95.5t257 -264.5t92.5 -377q0 -114 -32 -206t-94.5 -147t-146.5 -55q-80 0 -134 50t-60 139l-2 2q-31 -82 -111.5 -135.5t-171.5 -53.5q-161 0 -265.5 110t-104.5 282q0 185 102.5 302 t269.5 117q64 0 119 -18.5t86 -44t48 -47.5t18 -33h2v105h88v-564q0 -61 34 -99t87 -38q86 0 136 93t50 241q0 141 -48.5 263.5t-133 209t-202.5 136.5t-253 50t-253 -49.5t-202 -136.5t-132 -209.5t-48 -263.5q0 -188 82 -344t228 -246t325 -90q91 0 167.5 15t122.5 36 t78 42.5t47.5 36.5t16.5 15l66 -36q-5 -8 -21 -24t-58 -45t-95 -53t-139.5 -42.5t-184.5 -18.5q-152 0 -286 59t-228 159.5t-148.5 240t-54.5 295.5zM506 711q0 -135 79.5 -217t200.5 -82q119 0 193 82.5t74 222.5v104q0 102 -77 159.5t-190 57.5q-127 0 -203.5 -88.5 t-76.5 -238.5z" />
<glyph unicode="A" horiz-adv-x="1472" d="M47 0l637 1434h104l637 -1434h-129l-182 418h-756l-182 -418h-129zM406 522h661l-264 604q-13 31 -29.5 74t-26 67.5t-10.5 24.5h-2q-1 0 -10 -24.5t-25.5 -67.5t-29.5 -74z" />
<glyph unicode="B" horiz-adv-x="1316" d="M201 0v1434h512q184 0 296.5 -95.5t112.5 -251.5q0 -106 -79 -192t-175 -102v-2q54 -5 114 -33.5t114 -74t89.5 -115t35.5 -148.5q0 -190 -125.5 -305t-337.5 -115h-557zM317 104h437q150 0 247 85.5t97 228.5q0 133 -105.5 222t-253.5 89h-422v-625zM317 827h375 q137 0 224.5 74t87.5 178q0 114 -85.5 182t-226.5 68h-375v-502z" />
<glyph unicode="C" horiz-adv-x="1562" d="M94 717q0 159 58.5 298t158.5 237t237 154t290 56q208 0 380.5 -101t270.5 -274l-119 -30q-80 135 -222 213t-310 78q-175 0 -317 -78.5t-224 -223t-82 -329.5q0 -183 83 -327.5t225 -223t315 -78.5q181 0 329.5 90t225.5 242l116 -33q-90 -192 -269 -304t-402 -112 q-153 0 -290 56.5t-237 154t-158.5 237t-58.5 298.5z" />
<glyph unicode="D" horiz-adv-x="1632" d="M201 0v1434h596q152 0 288.5 -53.5t236 -147.5t158 -230t58.5 -294q0 -155 -57.5 -288.5t-156 -225t-231 -143.5t-280.5 -52h-612zM317 113h496q164 0 300 70.5t220 208t84 317.5q0 138 -49 254t-133.5 194t-197.5 121t-240 43h-480v-1208z" />
<glyph unicode="E" horiz-adv-x="1267" d="M201 0v1434h932v-113h-816v-500h658v-108h-658v-600h828v-113h-944z" />
<glyph unicode="F" horiz-adv-x="1181" d="M201 0v1434h911v-113h-795v-541h637v-108h-637v-672h-116z" />
<glyph unicode="G" horiz-adv-x="1630" d="M94 717q0 159 58.5 298t158.5 237t237 154t290 56q220 -6 387.5 -105.5t263.5 -269.5l-119 -30q-80 135 -222 213t-310 78q-175 0 -317 -78.5t-224 -223t-82 -329.5q0 -137 48.5 -255.5t132.5 -200.5t199 -128.5t245 -46.5q105 0 203 29.5t168 76.5t119 99t71 102v228 h-453v102h559v-727h-106v73t0.5 58t0.5 44v32.5t0.5 20.5t0.5 12v4h-2q-23 -30 -52.5 -60t-82.5 -69.5t-112 -69t-142.5 -50t-173.5 -20.5q-153 0 -290 56.5t-237 154t-158.5 237t-58.5 298.5z" />
<glyph unicode="H" horiz-adv-x="1488" d="M201 0v1434h116v-629h852v629h119v-1434h-119v692h-852v-692h-116z" />
<glyph unicode="I" horiz-adv-x="518" d="M201 0v1434h116v-1434h-116z" />
<glyph unicode="J" horiz-adv-x="1327" d="M31 342l119 31q44 -135 162 -213t272 -78q228 0 347.5 129.5t119.5 361.5v861h120v-852q0 -288 -152.5 -450.5t-434.5 -162.5q-199 0 -348.5 103t-204.5 270z" />
<glyph unicode="K" horiz-adv-x="1386" d="M201 0v1434h116v-426q0 -94 -1 -192t-1.5 -121t0.5 -42h2q1 0 41 41t106.5 108t106.5 107l525 525h147l-579 -580l632 -854h-139l-575 772l-265 -264v-508h-116z" />
<glyph unicode="L" horiz-adv-x="1153" d="M201 0v1434h116v-1321h795v-113h-911z" />
<glyph unicode="M" horiz-adv-x="1693" d="M201 0v1434h110l379 -654q57 -96 96 -167.5t50 -92.5l10 -22h2l10 22q11 21 50 92.5t96 167.5l378 654h111v-1434h-117v727q0 81 2.5 209t4.5 212q1 56 1 74v9h-2q-1 0 -122 -217l-381 -662h-64l-381 662q-121 217 -123 217h-2v-9q0 -18 1 -74q2 -84 4.5 -212t2.5 -209 v-727h-116z" />
<glyph unicode="N" horiz-adv-x="1542" d="M201 0v1434h110l729 -981l189 -254h2q1 0 -0.5 47.5t-3.5 140.5t-2 176v871h118v-1434h-110l-731 985q-52 72 -100 139t-67 94t-20 27h-2q-1 0 0 -47t2.5 -143t1.5 -183v-872h-116z" />
<glyph unicode="O" d="M94 717q0 159 58.5 298t158.5 237t237 154t290 56t290 -56t237 -154t159 -237t59 -298q0 -212 -100 -383.5t-270.5 -267t-374.5 -95.5q-153 0 -290 56.5t-237 154t-158.5 237t-58.5 298.5zM215 717q0 -137 48.5 -255.5t131.5 -200.5t198 -128.5t245 -46.5q173 0 315 79 t225.5 224t83.5 328q0 184 -83.5 329.5t-225.5 223.5t-315 78q-130 0 -244.5 -46t-198 -127.5t-132 -200t-48.5 -257.5z" />
<glyph unicode="P" horiz-adv-x="1196" d="M201 0v1434h407q247 0 387 -119t140 -330q0 -210 -140 -329t-387 -119h-291v-537h-116zM317 649h291q194 0 300 89.5t106 246.5q0 162 -108.5 249t-297.5 87h-291v-672z" />
<glyph unicode="Q" d="M94 717q0 159 58.5 298t158.5 237t237 154t290 56t290 -56t237 -154t159 -237t59 -298q0 -151 -53.5 -285.5t-145.5 -231t-218.5 -156.5t-268.5 -71v-243h-121v243q-142 12 -267.5 72.5t-217 157t-144.5 230t-53 284.5zM215 717q0 -137 48.5 -255.5t131.5 -200.5 t198 -128.5t245 -46.5q173 0 315 79t225.5 224t83.5 328q0 184 -83.5 329.5t-225.5 223.5t-315 78q-130 0 -244.5 -46t-198 -127.5t-132 -200t-48.5 -257.5z" />
<glyph unicode="R" horiz-adv-x="1277" d="M201 0v1434h407q245 0 386 -119t141 -324q0 -155 -81.5 -260.5t-230.5 -148.5l357 -582h-133l-342 559q-46 -6 -97 -6h-291v-553h-116zM317 657h297q191 0 295.5 91.5t104.5 242.5q0 157 -107 243.5t-293 86.5h-297v-664z" />
<glyph unicode="S" horiz-adv-x="1210" d="M82 391l113 31q13 -146 124 -244t295 -98q176 0 281.5 84t105.5 215q0 43 -13 80.5t-31 64.5t-53 52.5t-61.5 40.5t-76 33t-77 26t-83 23.5t-76.5 21.5q-164 47 -238 88q-179 97 -179 274q0 167 138 273t351 106q193 0 330.5 -104t169.5 -277l-115 -30 q-23 141 -129.5 223t-259.5 82q-161 0 -263 -72.5t-102 -196.5q0 -126 159 -201q72 -33 249 -81q44 -12 69.5 -19.5t71 -22.5t74 -28t68.5 -34t65 -42.5t53.5 -51.5t44.5 -62.5t26.5 -74.5t10.5 -89q0 -179 -142.5 -294.5t-371.5 -115.5q-224 0 -364 118t-164 302z" />
<glyph unicode="T" horiz-adv-x="1206" d="M53 1321v113h1100v-113h-491v-1321h-119v1321h-490z" />
<glyph unicode="U" horiz-adv-x="1466" d="M158 582v852h116v-856q0 -247 115.5 -371.5t343.5 -124.5q457 0 457 496v856h119v-852q0 -297 -148.5 -455t-427.5 -158q-281 0 -428 157.5t-147 455.5z" />
<glyph unicode="V" horiz-adv-x="1468" d="M47 1434h127l477 -1092q16 -37 36.5 -89.5t32.5 -85t13 -32.5h2q1 0 13.5 32t33.5 86t35 89l477 1092h127l-628 -1434h-115z" />
<glyph unicode="W" horiz-adv-x="1966" d="M57 1434h121l365 -1049q17 -52 32 -104t21.5 -75.5t7.5 -23.5h2q1 0 6.5 23.5t20 75t31.5 104.5l270 840h98l271 -840q17 -53 31 -104.5t19.5 -75t6.5 -23.5h2q1 0 7.5 23.5t22 75.5t33.5 104l363 1049h121l-498 -1434h-98l-246 780q-31 95 -51 168.5t-26 97.5l-5 23h-2 q-1 0 -7 -23.5t-26.5 -97.5t-50.5 -168l-244 -780h-100z" />
<glyph unicode="X" horiz-adv-x="1355" d="M37 0l567 748l-520 686h145l357 -469q9 -15 31.5 -48t41 -59.5t19.5 -26.5h2q1 0 18.5 25.5t41.5 61t32 47.5l354 469h146l-518 -686l567 -748h-145l-404 524q-19 25 -41.5 58.5t-36 54t-14.5 20.5h-2q-1 0 -14.5 -20t-37 -54.5t-40.5 -58.5l-404 -524h-145z" />
<glyph unicode="Y" horiz-adv-x="1304" d="M37 1434h137l387 -492q91 -117 92 -117h2q1 0 15 18.5t37.5 50t37.5 48.5l385 492h138l-557 -711v-723h-117v723z" />
<glyph unicode="Z" horiz-adv-x="1400" d="M123 0v109l911 1108q17 20 42.5 46.5t42 42.5t16.5 17l-2 2l-8 -1q-8 0 -23.5 -0.5t-35 -1t-48.5 -1t-60 -0.5h-815v113h1135v-109l-903 -1104q-25 -31 -50.5 -58.5t-38 -40t-12.5 -13.5l2 -3h9q9 1 25.5 2.5t37 2.5t48.5 1.5t55 0.5h827v-113h-1155z" />
<glyph unicode="[" horiz-adv-x="665" d="M201 -307v2060h397v-113h-274v-1837h274v-110h-397z" />
<glyph unicode="\" horiz-adv-x="942" d="M47 1434l727 -1434h119l-733 1434h-113z" />
<glyph unicode="]" horiz-adv-x="692" d="M94 -197v-110h398v2060h-398v-113h275v-1837h-275z" />
<glyph unicode="^" horiz-adv-x="1357" d="M201 977l479 481l479 -481l-67 -64l-412 424l-414 -424z" />
<glyph unicode="_" horiz-adv-x="1548" d="M201 0h1149v-92h-1149v92z" />
<glyph unicode="`" horiz-adv-x="620" d="M68 1731l47 88l426 -230l-41 -71z" />
<glyph unicode="a" horiz-adv-x="1472" d="M47 0l637 1434h104l637 -1434h-129l-182 418h-756l-182 -418h-129zM406 522h661l-264 604q-13 31 -29.5 74t-26 67.5t-10.5 24.5h-2q-1 0 -10 -24.5t-25.5 -67.5t-29.5 -74z" />
<glyph unicode="b" horiz-adv-x="1316" d="M201 0v1434h512q184 0 296.5 -95.5t112.5 -251.5q0 -106 -79 -192t-175 -102v-2q54 -5 114 -33.5t114 -74t89.5 -115t35.5 -148.5q0 -190 -125.5 -305t-337.5 -115h-557zM317 104h437q150 0 247 85.5t97 228.5q0 133 -105.5 222t-253.5 89h-422v-625zM317 827h375 q137 0 224.5 74t87.5 178q0 114 -85.5 182t-226.5 68h-375v-502z" />
<glyph unicode="c" horiz-adv-x="1562" d="M94 717q0 159 58.5 298t158.5 237t237 154t290 56q208 0 380.5 -101t270.5 -274l-119 -30q-80 135 -222 213t-310 78q-175 0 -317 -78.5t-224 -223t-82 -329.5q0 -183 83 -327.5t225 -223t315 -78.5q181 0 329.5 90t225.5 242l116 -33q-90 -192 -269 -304t-402 -112 q-153 0 -290 56.5t-237 154t-158.5 237t-58.5 298.5z" />
<glyph unicode="d" horiz-adv-x="1632" d="M201 0v1434h596q152 0 288.5 -53.5t236 -147.5t158 -230t58.5 -294q0 -155 -57.5 -288.5t-156 -225t-231 -143.5t-280.5 -52h-612zM317 113h496q164 0 300 70.5t220 208t84 317.5q0 138 -49 254t-133.5 194t-197.5 121t-240 43h-480v-1208z" />
<glyph unicode="e" horiz-adv-x="1267" d="M201 0v1434h932v-113h-816v-500h658v-108h-658v-600h828v-113h-944z" />
<glyph unicode="f" horiz-adv-x="1181" d="M201 0v1434h911v-113h-795v-541h637v-108h-637v-672h-116z" />
<glyph unicode="g" horiz-adv-x="1630" d="M94 717q0 159 58.5 298t158.5 237t237 154t290 56q220 -6 387.5 -105.5t263.5 -269.5l-119 -30q-80 135 -222 213t-310 78q-175 0 -317 -78.5t-224 -223t-82 -329.5q0 -137 48.5 -255.5t132.5 -200.5t199 -128.5t245 -46.5q105 0 203 29.5t168 76.5t119 99t71 102v228 h-453v102h559v-727h-106v73t0.5 58t0.5 44v32.5t0.5 20.5t0.5 12v4h-2q-23 -30 -52.5 -60t-82.5 -69.5t-112 -69t-142.5 -50t-173.5 -20.5q-153 0 -290 56.5t-237 154t-158.5 237t-58.5 298.5z" />
<glyph unicode="h" horiz-adv-x="1488" d="M201 0v1434h116v-629h852v629h119v-1434h-119v692h-852v-692h-116z" />
<glyph unicode="i" horiz-adv-x="518" d="M201 0v1434h116v-1434h-116z" />
<glyph unicode="j" horiz-adv-x="1327" d="M31 342l119 31q44 -135 162 -213t272 -78q228 0 347.5 129.5t119.5 361.5v861h120v-852q0 -288 -152.5 -450.5t-434.5 -162.5q-199 0 -348.5 103t-204.5 270z" />
<glyph unicode="k" horiz-adv-x="1386" d="M201 0v1434h116v-426q0 -94 -1 -192t-1.5 -121t0.5 -42h2q1 0 41 41t106.5 108t106.5 107l525 525h147l-579 -580l632 -854h-139l-575 772l-265 -264v-508h-116z" />
<glyph unicode="l" horiz-adv-x="1153" d="M201 0v1434h116v-1321h795v-113h-911z" />
<glyph unicode="m" horiz-adv-x="1693" d="M201 0v1434h110l379 -654q57 -96 96 -167.5t50 -92.5l10 -22h2l10 22q11 21 50 92.5t96 167.5l378 654h111v-1434h-117v727q0 81 2.5 209t4.5 212q1 56 1 74v9h-2q-1 0 -122 -217l-381 -662h-64l-381 662q-121 217 -123 217h-2v-9q0 -18 1 -74q2 -84 4.5 -212t2.5 -209 v-727h-116z" />
<glyph unicode="n" horiz-adv-x="1542" d="M201 0v1434h110l729 -981l189 -254h2q1 0 -0.5 47.5t-3.5 140.5t-2 176v871h118v-1434h-110l-731 985q-52 72 -100 139t-67 94t-20 27h-2q-1 0 0 -47t2.5 -143t1.5 -183v-872h-116z" />
<glyph unicode="o" d="M94 717q0 159 58.5 298t158.5 237t237 154t290 56t290 -56t237 -154t159 -237t59 -298q0 -212 -100 -383.5t-270.5 -267t-374.5 -95.5q-153 0 -290 56.5t-237 154t-158.5 237t-58.5 298.5zM215 717q0 -137 48.5 -255.5t131.5 -200.5t198 -128.5t245 -46.5q173 0 315 79 t225.5 224t83.5 328q0 184 -83.5 329.5t-225.5 223.5t-315 78q-130 0 -244.5 -46t-198 -127.5t-132 -200t-48.5 -257.5z" />
<glyph unicode="p" horiz-adv-x="1196" d="M201 0v1434h407q247 0 387 -119t140 -330q0 -210 -140 -329t-387 -119h-291v-537h-116zM317 649h291q194 0 300 89.5t106 246.5q0 162 -108.5 249t-297.5 87h-291v-672z" />
<glyph unicode="q" d="M94 717q0 159 58.5 298t158.5 237t237 154t290 56t290 -56t237 -154t159 -237t59 -298q0 -151 -53.5 -285.5t-145.5 -231t-218.5 -156.5t-268.5 -71v-243h-121v243q-142 12 -267.5 72.5t-217 157t-144.5 230t-53 284.5zM215 717q0 -137 48.5 -255.5t131.5 -200.5 t198 -128.5t245 -46.5q173 0 315 79t225.5 224t83.5 328q0 184 -83.5 329.5t-225.5 223.5t-315 78q-130 0 -244.5 -46t-198 -127.5t-132 -200t-48.5 -257.5z" />
<glyph unicode="r" horiz-adv-x="1277" d="M201 0v1434h407q245 0 386 -119t141 -324q0 -155 -81.5 -260.5t-230.5 -148.5l357 -582h-133l-342 559q-46 -6 -97 -6h-291v-553h-116zM317 657h297q191 0 295.5 91.5t104.5 242.5q0 157 -107 243.5t-293 86.5h-297v-664z" />
<glyph unicode="s" horiz-adv-x="1210" d="M82 391l113 31q13 -146 124 -244t295 -98q176 0 281.5 84t105.5 215q0 43 -13 80.5t-31 64.5t-53 52.5t-61.5 40.5t-76 33t-77 26t-83 23.5t-76.5 21.5q-164 47 -238 88q-179 97 -179 274q0 167 138 273t351 106q193 0 330.5 -104t169.5 -277l-115 -30 q-23 141 -129.5 223t-259.5 82q-161 0 -263 -72.5t-102 -196.5q0 -126 159 -201q72 -33 249 -81q44 -12 69.5 -19.5t71 -22.5t74 -28t68.5 -34t65 -42.5t53.5 -51.5t44.5 -62.5t26.5 -74.5t10.5 -89q0 -179 -142.5 -294.5t-371.5 -115.5q-224 0 -364 118t-164 302z" />
<glyph unicode="t" horiz-adv-x="1206" d="M53 1321v113h1100v-113h-491v-1321h-119v1321h-490z" />
<glyph unicode="u" horiz-adv-x="1466" d="M158 582v852h116v-856q0 -247 115.5 -371.5t343.5 -124.5q457 0 457 496v856h119v-852q0 -297 -148.5 -455t-427.5 -158q-281 0 -428 157.5t-147 455.5z" />
<glyph unicode="v" horiz-adv-x="1468" d="M47 1434h127l477 -1092q16 -37 36.5 -89.5t32.5 -85t13 -32.5h2q1 0 13.5 32t33.5 86t35 89l477 1092h127l-628 -1434h-115z" />
<glyph unicode="w" horiz-adv-x="1966" d="M57 1434h121l365 -1049q17 -52 32 -104t21.5 -75.5t7.5 -23.5h2q1 0 6.5 23.5t20 75t31.5 104.5l270 840h98l271 -840q17 -53 31 -104.5t19.5 -75t6.5 -23.5h2q1 0 7.5 23.5t22 75.5t33.5 104l363 1049h121l-498 -1434h-98l-246 780q-31 95 -51 168.5t-26 97.5l-5 23h-2 q-1 0 -7 -23.5t-26.5 -97.5t-50.5 -168l-244 -780h-100z" />
<glyph unicode="x" horiz-adv-x="1355" d="M37 0l567 748l-520 686h145l357 -469q9 -15 31.5 -48t41 -59.5t19.5 -26.5h2q1 0 18.5 25.5t41.5 61t32 47.5l354 469h146l-518 -686l567 -748h-145l-404 524q-19 25 -41.5 58.5t-36 54t-14.5 20.5h-2q-1 0 -14.5 -20t-37 -54.5t-40.5 -58.5l-404 -524h-145z" />
<glyph unicode="y" horiz-adv-x="1304" d="M37 1434h137l387 -492q91 -117 92 -117h2q1 0 15 18.5t37.5 50t37.5 48.5l385 492h138l-557 -711v-723h-117v723z" />
<glyph unicode="z" horiz-adv-x="1400" d="M123 0v109l911 1108q17 20 42.5 46.5t42 42.5t16.5 17l-2 2l-8 -1q-8 0 -23.5 -0.5t-35 -1t-48.5 -1t-60 -0.5h-815v113h1135v-109l-903 -1104q-25 -31 -50.5 -58.5t-38 -40t-12.5 -13.5l2 -3h9q9 1 25.5 2.5t37 2.5t48.5 1.5t55 0.5h827v-113h-1155z" />
<glyph unicode="{" horiz-adv-x="763" d="M201 721q5 2 14 6t32 25.5t40.5 53t32 92.5t14.5 138v273q0 450 393 450v-110q-274 0 -274 -330v-272q0 -255 -113 -326q9 -4 18.5 -11.5t28 -31.5t32 -57t24 -92.5t10.5 -133.5v-272q0 -330 274 -330v-110q-393 0 -393 450v273q0 77 -13.5 138t-33 92.5t-39.5 52.5 t-34 27z" />
<glyph unicode="|" horiz-adv-x="501" d="M201 -152v1739h100v-1739h-100z" />
<glyph unicode="}" horiz-adv-x="763" d="M37 -207v-110q393 0 393 450v273q0 77 13.5 138t33 92.5t39.5 52.5t34 27l13 5q-5 2 -14 6t-32 25.5t-40.5 53t-32 92.5t-14.5 138v273q0 450 -393 450v-110q274 0 274 -330v-272q0 -255 113 -326q-9 -4 -18.5 -11.5t-28 -31.5t-32 -57t-24 -92.5t-10.5 -133.5v-272 q0 -330 -274 -330z" />
<glyph unicode="~" horiz-adv-x="1429" d="M289 655q15 91 83 143t163 52q46 0 89 -16.5t76 -39.5t64 -46t65 -39.5t66 -16.5q65 0 104.5 37t44.5 92l103 -28q-12 -90 -79.5 -142.5t-160.5 -52.5q-45 0 -88 16.5t-76.5 39.5t-65 46t-66 39.5t-68.5 16.5q-66 0 -106 -36t-46 -91z" />
<glyph unicode="&#xa1;" horiz-adv-x="518" d="M201 0v958h116v-958h-116zM201 1112v322h116v-322h-116z" />
<glyph unicode="&#xa2;" horiz-adv-x="1150" d="M94 719q0 212 136 360.5t337 167.5v215h103v-215q136 -12 246 -85t169 -189l-102 -29q-54 96 -149.5 148.5t-215.5 52.5q-181 0 -296 -116.5t-115 -309.5q0 -190 115.5 -307t295.5 -117q130 0 230 59.5t151 167.5l101 -28q-56 -130 -170 -211t-260 -93v-219h-101v219 q-202 19 -338.5 167.5t-136.5 361.5z" />
<glyph unicode="&#xa3;" horiz-adv-x="1347" d="M201 0v113q88 18 132.5 74.5t51.5 147t-2 216.5l-12 137h-156v100h145l-20 222q-17 191 101.5 319t310.5 133q73 2 141.5 -16.5t134.5 -60.5t118 -120.5t79 -185.5l-105 -28q-49 165 -142 236.5t-228 66.5q-142 -4 -224.5 -102.5t-68.5 -247.5l20 -216h508v-100h-500 l13 -135q18 -197 -13 -301.5t-110 -142.5l2 -3h13q13 1 36.5 1.5t55 1.5t72 1.5t83 1t92 1t96.5 0.5h426v-113h-1050z" />
<glyph unicode="&#xa4;" horiz-adv-x="1331" d="M96 213l154 156q-117 146 -117 329q0 98 35 189.5t98 163.5l-147 145l65 66l152 -148q145 119 328 119q188 0 333 -117l148 146l63 -66l-145 -145q64 -70 99.5 -161.5t35.5 -191.5q0 -186 -117 -331l152 -154l-66 -66l-151 154q-71 -63 -162 -99t-190 -36 q-197 0 -351 135l-153 -154zM244 700q0 -179 122.5 -302.5t299.5 -123.5q178 0 301 123.5t123 302.5q0 178 -123 302t-301 124q-177 0 -299.5 -124.5t-122.5 -301.5z" />
<glyph unicode="&#xa5;" horiz-adv-x="1304" d="M37 1434h137l387 -492q91 -117 92 -117h2q1 0 15 18.5t37.5 50t37.5 48.5l385 492h138l-461 -588h326v-94h-400l-22 -29v-55h422v-93h-422v-575h-117v575h-408v93h408v55l-23 29h-385v94h312z" />
<glyph unicode="&#xa6;" horiz-adv-x="501" d="M201 -152v594h100v-594h-100zM201 1014v573h100v-573h-100z" />
<glyph unicode="&#xa7;" horiz-adv-x="1073" d="M82 274l100 27q13 -107 104 -177t251 -71q151 0 244 59t93 148q0 27 -7.5 50t-24 42t-33 34t-46 28.5t-50.5 22.5t-59 19.5t-59.5 16t-63 15.5t-58.5 14q-157 37 -223 68q-151 71 -152 194q0 84 63 144.5t171 90.5q-191 67 -191 207q0 116 116.5 189t293.5 73 q162 0 276 -71.5t140 -192.5l-105 -28q-17 96 -102 150t-211 54q-131 0 -214 -46t-83 -124q0 -82 124 -129q50 -19 171 -46l37 -9q39 -9 57.5 -13.5t58.5 -16t62 -20t57 -23.5t55 -29.5t44.5 -35.5t37.5 -43.5t22 -51.5t9 -62q0 -164 -217 -219q215 -83 215 -248 q0 -131 -124 -215t-326 -84q-194 0 -312 87t-141 222zM205 766q0 -28 10.5 -50.5t39 -41t49 -30.5t70 -26t70.5 -19.5t80 -18.5l39 -9q53 -10 101 -24q96 18 155.5 66t59.5 116q0 29 -10.5 53.5t-26 42.5t-43.5 34.5t-51 26.5t-62.5 21.5t-63 17t-67.5 15t-63 14.5 q-5 1 -15.5 3.5t-15.5 3.5q-44 -6 -86.5 -19.5t-82 -36t-63.5 -58.5t-24 -81z" />
<glyph unicode="&#xa8;" horiz-adv-x="782" d="M68 1651q0 34 25 59t61 25q35 0 60.5 -25t25.5 -59q0 -36 -25 -61t-61 -25q-37 0 -61.5 24.5t-24.5 61.5zM532 1651q0 34 25 59t61 25t60 -25t24 -59q0 -37 -23.5 -61.5t-60.5 -24.5t-61.5 24.5t-24.5 61.5z" />
<glyph unicode="&#xa9;" d="M94 717q0 159 58.5 298t158.5 237t237 154t290 56t290 -56t237 -154t159 -237t59 -298q0 -212 -100 -383.5t-270.5 -267t-374.5 -95.5q-153 0 -290 56.5t-237 154t-158.5 237t-58.5 298.5zM193 717q0 -192 84.5 -341t231 -229.5t329.5 -80.5q182 0 329 80.5t232.5 230 t85.5 340.5q0 194 -85.5 344t-232.5 229.5t-329 79.5q-137 0 -255.5 -46.5t-204.5 -130.5t-135.5 -207t-49.5 -269zM479 715q0 158 104.5 263t262.5 105q103 0 195.5 -55.5t132.5 -140.5l-80 -25q-34 63 -102.5 101t-145.5 38q-122 0 -200.5 -80t-78.5 -206 q0 -127 78.5 -207t200.5 -80q83 0 154 44.5t102 113.5l84 -25q-38 -94 -134.5 -155.5t-205.5 -61.5q-158 0 -262.5 105.5t-104.5 265.5z" />
<glyph unicode="&#xaa;" horiz-adv-x="712" d="M41 545v86h631v-86h-631zM45 768l277 682h67l277 -682h-93l-69 174h-295l-70 -174h-94zM236 1014h241l-80 200q-10 26 -19.5 61.5t-14 58t-5.5 22.5h-2q-1 0 -6 -22.5t-15 -58t-20 -61.5z" />
<glyph unicode="&#xab;" horiz-adv-x="1517" d="M201 721l481 -479l70 69l-416 410l416 409l-70 70zM766 721l481 -479l70 69l-416 410l416 409l-70 70z" />
<glyph unicode="&#xad;" horiz-adv-x="1353" d="M201 678v102h952v-102h-952z" />
<glyph unicode="&#xae;" d="M94 717q0 159 58.5 298t158.5 237t237 154t290 56t290 -56t237 -154t159 -237t59 -298q0 -212 -100 -383.5t-270.5 -267t-374.5 -95.5q-153 0 -290 56.5t-237 154t-158.5 237t-58.5 298.5zM193 717q0 -192 84.5 -341t231 -229.5t329.5 -80.5q182 0 329 80.5t232.5 230 t85.5 340.5q0 194 -85.5 344t-232.5 229.5t-329 79.5q-137 0 -255.5 -46.5t-204.5 -130.5t-135.5 -207t-49.5 -269zM618 346v744h226q127 0 200.5 -61t73.5 -167q0 -167 -157 -213l188 -303h-92l-180 289q-10 -2 -33 -2h-142v-287h-84zM702 707h146q96 0 141 38t45 115 q0 152 -186 152h-146v-305z" />
<glyph unicode="&#xaf;" horiz-adv-x="778" d="M59 1430v94h648v-94h-648z" />
<glyph unicode="&#xb0;" horiz-adv-x="575" d="M86 1417q0 84 58.5 142.5t142.5 58.5t143 -58.5t59 -142.5q0 -83 -59.5 -141.5t-142.5 -58.5t-142 58.5t-59 141.5zM164 1417q0 -49 36.5 -85t86.5 -36q51 0 88 36t37 85q0 52 -36.5 87.5t-88.5 35.5q-50 0 -86.5 -35.5t-36.5 -87.5z" />
<glyph unicode="&#xb1;" horiz-adv-x="1429" d="M240 -18v102h952v-102h-952zM240 678v102h419v412h113v-412h420v-102h-420v-389h-113v389h-419z" />
<glyph unicode="&#xb2;" horiz-adv-x="667" d="M41 1544q30 116 109.5 177t191.5 61q119 0 201 -76t82 -184q0 -139 -156 -265q-94 -75 -193 -149q-27 -21 -55 -39t-43 -27l-16 -8l2 -2q90 15 198 15h254v-84h-559v67l351 277q55 45 91 101.5t36 111.5q0 76 -55.5 126t-139.5 50q-91 0 -139.5 -43t-73.5 -131z" />
<glyph unicode="&#xb3;" horiz-adv-x="667" d="M41 1198l86 21q3 -86 63.5 -138.5t153.5 -52.5t143 47.5t50 118.5q0 66 -55 107.5t-144 41.5h-82v70h82q85 0 137.5 43t52.5 109q0 52 -45.5 93.5t-140.5 41.5q-87 0 -136.5 -42.5t-68.5 -127.5l-80 22q17 104 94.5 167t190.5 63q137 0 205.5 -62.5t68.5 -152.5 q0 -77 -54.5 -129.5t-129.5 -57.5v-2q81 -5 137 -54.5t56 -129.5q0 -111 -79.5 -179.5t-201.5 -68.5q-119 0 -205 70t-98 182z" />
<glyph unicode="&#xb4;" horiz-adv-x="620" d="M68 1589l426 230l47 -88l-432 -213z" />
<glyph unicode="&#xb6;" horiz-adv-x="1226" d="M94 1079q0 166 115.5 260.5t320.5 94.5h496v-1434h-117v1321h-176v-1321h-112v725h-91q-206 0 -321 93.5t-115 260.5z" />
<glyph unicode="&#xb7;" horiz-adv-x="415" d="M123 705q0 35 25 59t59 24q37 0 61.5 -24t24.5 -59q0 -37 -25.5 -62t-60.5 -25t-59.5 25.5t-24.5 61.5z" />
<glyph unicode="&#xb8;" horiz-adv-x="477" d="M68 -461l32 76h88q59 0 94 28.5t35 75.5t-36 78t-93 31h-106l61 172h82l-37 -98q93 2 151 -48.5t58 -134.5q0 -83 -57.5 -131.5t-151.5 -48.5h-120z" />
<glyph unicode="&#xb9;" horiz-adv-x="430" d="M31 1522l254 243h63v-802h-90v507q0 16 1 40.5t2.5 48.5t3 45l2.5 35l1 14h-2q-1 0 -9.5 -12t-24 -31t-29.5 -33l-115 -111z" />
<glyph unicode="&#xba;" horiz-adv-x="753" d="M20 1106q0 153 103.5 254.5t251.5 101.5q150 0 254 -101.5t104 -254.5q0 -152 -104 -253t-254 -101q-148 0 -251.5 101t-103.5 253zM43 545v86h670v-86h-670zM106 1106q0 -116 77 -193t192 -77q116 0 193 76.5t77 193.5q0 118 -77 195t-193 77q-115 0 -192 -77t-77 -195z " />
<glyph unicode="&#xbb;" horiz-adv-x="1517" d="M201 311l415 410l-415 409l69 70l482 -479l-482 -479zM764 311l418 410l-418 409l72 70l481 -479l-481 -479z" />
<glyph unicode="&#xbc;" horiz-adv-x="1341" d="M31 1190l254 244h63v-803h-90v508q0 16 1 40.5t2.5 48t3 44.5l2.5 35l1 14h-2q-1 0 -9.5 -12t-24 -31t-29.5 -33l-115 -110zM117 0l964 1434h93l-963 -1434h-94zM678 209v63l448 531h64v-514h108v-80h-108v-209h-86v209h-426zM772 287l2 -2l8 1q8 0 21.5 0.5t31 1t41 1 t46.5 0.5h182v188q0 24 0.5 48t1 43t1.5 36.5t2 30t1.5 22t1.5 14.5v5h-2q-1 0 -20.5 -28t-52.5 -71.5t-60 -74.5l-107 -123q-17 -20 -41.5 -42.5t-40.5 -35.5t-16 -14z" />
<glyph unicode="&#xbd;" horiz-adv-x="1427" d="M31 1190l254 244h63v-803h-90v508q0 16 1 40.5t2.5 48t3 44.5l2.5 35l1 14h-2q-1 0 -9.5 -12t-24 -31t-29.5 -33l-115 -110zM117 0l964 1434h93l-963 -1434h-94zM801 582q30 116 109 176.5t192 60.5q119 0 200.5 -76t81.5 -184q0 -139 -155 -264q-110 -89 -193 -150 q-27 -21 -55 -38.5t-43 -26.5l-16 -8l2 -2q84 14 198 14h254v-84h-559v68l350 276q55 45 91 101.5t36 111.5q0 76 -55 126t-139 50q-91 0 -139.5 -43t-73.5 -131z" />
<glyph unicode="&#xbe;" horiz-adv-x="1501" d="M41 866l86 21q3 -86 63.5 -138.5t153.5 -52.5t143 47.5t50 118.5q0 66 -55 108t-144 42h-82v69h82q85 0 137.5 43t52.5 109q0 52 -45.5 93.5t-140.5 41.5q-87 0 -136.5 -42.5t-68.5 -127.5l-80 23q17 104 94.5 166.5t190.5 62.5q137 0 205.5 -62.5t68.5 -152.5 q0 -77 -54.5 -129t-129.5 -57v-2q80 -5 136.5 -55t56.5 -130q0 -111 -79.5 -179.5t-201.5 -68.5q-119 0 -205 70t-98 182zM274 0l965 1434h94l-964 -1434h-95zM838 209v63l448 531h64v-514h108v-80h-108v-209h-86v209h-426zM932 287l2 -2l8 1q8 0 21.5 0.5t30.5 1t40.5 1 t46.5 0.5h183v188q0 24 0.5 48t1 43t1.5 36.5t2 30t1.5 22t1.5 14.5v5h-2q-1 0 -20.5 -28t-52.5 -71.5t-60 -74.5l-107 -123q-17 -20 -41.5 -42.5t-40.5 -35.5t-16 -14z" />
<glyph unicode="&#xbf;" horiz-adv-x="1165" d="M94 367q0 72 28 135.5t69.5 108t106 86.5t120.5 68.5t131 55.5v137h121v-190q-253 -104 -353 -191t-100 -208q0 -41 10 -79t35 -77t63.5 -68t101 -47t142.5 -18q169 0 265.5 77t134.5 224l102 -29q-41 -181 -174 -281t-330 -100q-125 0 -219 33.5t-148 91t-80 126 t-26 145.5zM549 1112v322h121v-322h-121z" />
<glyph unicode="&#xc0;" horiz-adv-x="1472" d="M47 0l637 1434h104l637 -1434h-129l-182 418h-756l-182 -418h-129zM406 522h661l-264 604q-13 31 -29.5 74t-26 67.5t-10.5 24.5h-2q-1 0 -10 -24.5t-25.5 -67.5t-29.5 -74zM420 1731l47 88l424 -230l-39 -71z" />
<glyph unicode="&#xc1;" horiz-adv-x="1472" d="M47 0l637 1434h104l637 -1434h-129l-182 418h-756l-182 -418h-129zM406 522h661l-264 604q-13 31 -29.5 74t-26 67.5t-10.5 24.5h-2q-1 0 -10 -24.5t-25.5 -67.5t-29.5 -74zM553 1589l424 230l47 -88l-430 -213z" />
<glyph unicode="&#xc2;" horiz-adv-x="1472" d="M47 0l637 1434h104l637 -1434h-129l-182 418h-756l-182 -418h-129zM406 522h661l-264 604q-13 31 -29.5 74t-26 67.5t-10.5 24.5h-2q-1 0 -10 -24.5t-25.5 -67.5t-29.5 -74zM410 1593l325 277l324 -277l-64 -65l-260 223l-262 -223z" />
<glyph unicode="&#xc3;" horiz-adv-x="1472" d="M47 0l637 1434h104l637 -1434h-129l-182 418h-756l-182 -418h-129zM399 1577q0 80 56.5 132t142.5 52q41 0 80.5 -18t65.5 -39t58 -39t60 -18q43 0 73.5 28t31.5 70h98q2 -80 -54.5 -132t-144.5 -52q-38 0 -76 18t-64 39t-60 39t-64 18q-44 0 -73 -27.5t-29 -70.5h-101z M406 522h661l-264 604q-13 31 -29.5 74t-26 67.5t-10.5 24.5h-2q-1 0 -10 -24.5t-25.5 -67.5t-29.5 -74z" />
<glyph unicode="&#xc4;" horiz-adv-x="1472" d="M47 0l637 1434h104l637 -1434h-129l-182 418h-756l-182 -418h-129zM406 522h661l-264 604q-13 31 -29.5 74t-26 67.5t-10.5 24.5h-2q-1 0 -10 -24.5t-25.5 -67.5t-29.5 -74zM414 1651q0 34 25 59t61 25q35 0 60.5 -25t25.5 -59q0 -36 -25 -61t-61 -25q-37 0 -61.5 24.5 t-24.5 61.5zM879 1651q0 34 24.5 59t59.5 25q36 0 61 -25t25 -59q0 -37 -24.5 -61.5t-61.5 -24.5q-35 0 -59.5 24.5t-24.5 61.5z" />
<glyph unicode="&#xc5;" horiz-adv-x="1472" d="M47 0l635 1427q-65 19 -105 71.5t-40 121.5q0 85 57.5 143t142.5 58q82 0 141.5 -58.5t59.5 -142.5q0 -68 -41.5 -122t-105.5 -71l634 -1427h-129l-182 418h-756l-182 -418h-129zM406 522h661l-264 604q-13 31 -29.5 74t-26 67.5t-10.5 24.5h-2q-1 0 -10 -24.5 t-25.5 -67.5t-29.5 -74zM614 1620q0 -50 36 -85.5t87 -35.5t87 35.5t36 85.5q0 52 -36 87.5t-87 35.5t-87 -35.5t-36 -87.5z" />
<glyph unicode="&#xc6;" horiz-adv-x="2009" d="M47 0l658 1434h1167v-113h-811v-500h659v-108h-659v-600h823v-113h-942v418h-577l-189 -418h-129zM414 522h528v799h-172q-1 0 -19.5 -43t-49 -114t-48.5 -111z" />
<glyph unicode="&#xc7;" horiz-adv-x="1562" d="M94 717q0 159 58.5 298t158.5 237t237 154t290 56q208 0 380.5 -101t270.5 -274l-119 -30q-80 135 -222 213t-310 78q-175 0 -317 -78.5t-224 -223t-82 -329.5q0 -183 83 -327.5t225 -223t315 -78.5q181 0 329.5 90t225.5 242l116 -33q-88 -188 -263 -300t-394 -116 l-27 -69q93 2 151 -48.5t58 -134.5q0 -83 -57.5 -131.5t-151.5 -48.5h-118l30 76h88q59 0 94 28.5t35 75.5q0 48 -35.5 78.5t-93.5 30.5h-104l51 145q-142 12 -266.5 72.5t-215.5 157t-143.5 230t-52.5 284.5z" />
<glyph unicode="&#xc8;" horiz-adv-x="1267" d="M201 0v1434h932v-113h-816v-500h658v-108h-658v-600h828v-113h-944zM354 1731l47 88l424 -230l-39 -71z" />
<glyph unicode="&#xc9;" horiz-adv-x="1267" d="M201 0v1434h932v-113h-816v-500h658v-108h-658v-600h828v-113h-944zM487 1589l424 230l47 -88l-430 -213z" />
<glyph unicode="&#xca;" horiz-adv-x="1267" d="M201 0v1434h932v-113h-816v-500h658v-108h-658v-600h828v-113h-944zM344 1593l326 277l323 -277l-63 -65l-260 223l-262 -223z" />
<glyph unicode="&#xcb;" horiz-adv-x="1267" d="M201 0v1434h932v-113h-816v-500h658v-108h-658v-600h828v-113h-944zM348 1651q0 34 25 59t61 25q35 0 60.5 -25t25.5 -59q0 -36 -25 -61t-61 -25q-37 0 -61.5 24.5t-24.5 61.5zM813 1651q0 34 24.5 59t59.5 25q36 0 61 -25t25 -59q0 -37 -24.5 -61.5t-61.5 -24.5 q-35 0 -59.5 24.5t-24.5 61.5z" />
<glyph unicode="&#xcc;" horiz-adv-x="518" d="M-59 1731l47 88l424 -230l-39 -71zM201 0v1434h116v-1434h-116z" />
<glyph unicode="&#xcd;" horiz-adv-x="518" d="M74 1589l424 230l47 -88l-430 -213zM201 0v1434h116v-1434h-116z" />
<glyph unicode="&#xce;" horiz-adv-x="518" d="M-70 1593l326 277l324 -277l-64 -65l-260 223l-262 -223zM201 0v1434h116v-1434h-116z" />
<glyph unicode="&#xcf;" horiz-adv-x="518" d="M-66 1651q0 34 25 59t61 25q35 0 60.5 -25t25.5 -59q0 -36 -25 -61t-61 -25q-37 0 -61.5 24.5t-24.5 61.5zM201 0v1434h116v-1434h-116zM399 1651q0 34 24.5 59t59.5 25q36 0 61 -25t25 -59q0 -37 -24.5 -61.5t-61.5 -24.5q-35 0 -59.5 24.5t-24.5 61.5z" />
<glyph unicode="&#xd0;" horiz-adv-x="1638" d="M94 676v110h111v648h596q152 0 288.5 -53.5t236 -147.5t158 -230t58.5 -294q0 -155 -57.5 -288.5t-156 -225t-231 -143.5t-280.5 -52h-612v676h-111zM322 113h495q164 0 300 70.5t220 208t84 317.5q0 138 -49 254t-133.5 194t-197.5 121t-240 43h-479v-535h405v-110h-405 v-563z" />
<glyph unicode="&#xd1;" horiz-adv-x="1542" d="M201 0v1434h110l729 -981l189 -254h2q1 0 -0.5 47.5t-3.5 140.5t-2 176v871h118v-1434h-110l-731 985q-52 72 -100 139t-67 94t-20 27h-2q-1 0 0 -47t2.5 -143t1.5 -183v-872h-116zM438 1577q0 80 56.5 132t142.5 52q41 0 80.5 -18t65.5 -39t58 -39t60 -18q43 0 73.5 28 t31.5 70h98q2 -80 -54.5 -132t-144.5 -52q-38 0 -76 18t-64 39t-60 39t-64 18q-44 0 -73 -27.5t-29 -70.5h-101z" />
<glyph unicode="&#xd2;" d="M94 717q0 159 58.5 298t158.5 237t237 154t290 56t290 -56t237 -154t159 -237t59 -298q0 -212 -100 -383.5t-270.5 -267t-374.5 -95.5q-153 0 -290 56.5t-237 154t-158.5 237t-58.5 298.5zM215 717q0 -137 48.5 -255.5t131.5 -200.5t198 -128.5t245 -46.5q173 0 315 79 t225.5 224t83.5 328q0 184 -83.5 329.5t-225.5 223.5t-315 78q-130 0 -244.5 -46t-198 -127.5t-132 -200t-48.5 -257.5zM530 1731l48 88l423 -230l-38 -71z" />
<glyph unicode="&#xd3;" d="M94 717q0 159 58.5 298t158.5 237t237 154t290 56t290 -56t237 -154t159 -237t59 -298q0 -212 -100 -383.5t-270.5 -267t-374.5 -95.5q-153 0 -290 56.5t-237 154t-158.5 237t-58.5 298.5zM215 717q0 -137 48.5 -255.5t131.5 -200.5t198 -128.5t245 -46.5q173 0 315 79 t225.5 224t83.5 328q0 184 -83.5 329.5t-225.5 223.5t-315 78q-130 0 -244.5 -46t-198 -127.5t-132 -200t-48.5 -257.5zM664 1589l423 230l48 -88l-430 -213z" />
<glyph unicode="&#xd4;" d="M94 717q0 159 58.5 298t158.5 237t237 154t290 56t290 -56t237 -154t159 -237t59 -298q0 -212 -100 -383.5t-270.5 -267t-374.5 -95.5q-153 0 -290 56.5t-237 154t-158.5 237t-58.5 298.5zM215 717q0 -137 48.5 -255.5t131.5 -200.5t198 -128.5t245 -46.5q173 0 315 79 t225.5 224t83.5 328q0 184 -83.5 329.5t-225.5 223.5t-315 78q-130 0 -244.5 -46t-198 -127.5t-132 -200t-48.5 -257.5zM520 1593l326 277l323 -277l-63 -65l-260 223l-262 -223z" />
<glyph unicode="&#xd5;" d="M94 717q0 159 58.5 298t158.5 237t237 154t290 56t290 -56t237 -154t159 -237t59 -298q0 -212 -100 -383.5t-270.5 -267t-374.5 -95.5q-153 0 -290 56.5t-237 154t-158.5 237t-58.5 298.5zM215 717q0 -137 48.5 -255.5t131.5 -200.5t198 -128.5t245 -46.5q173 0 315 79 t225.5 224t83.5 328q0 184 -83.5 329.5t-225.5 223.5t-315 78q-130 0 -244.5 -46t-198 -127.5t-132 -200t-48.5 -257.5zM510 1577q0 80 56.5 132t142.5 52q41 0 80.5 -18t65.5 -39t58 -39t60 -18q43 0 73 28t31 70h99q2 -80 -54.5 -132t-144.5 -52q-38 0 -76 18t-64 39 t-60 39t-64 18q-44 0 -73.5 -27.5t-29.5 -70.5h-100z" />
<glyph unicode="&#xd6;" d="M94 717q0 159 58.5 298t158.5 237t237 154t290 56t290 -56t237 -154t159 -237t59 -298q0 -212 -100 -383.5t-270.5 -267t-374.5 -95.5q-153 0 -290 56.5t-237 154t-158.5 237t-58.5 298.5zM215 717q0 -137 48.5 -255.5t131.5 -200.5t198 -128.5t245 -46.5q173 0 315 79 t225.5 224t83.5 328q0 184 -83.5 329.5t-225.5 223.5t-315 78q-130 0 -244.5 -46t-198 -127.5t-132 -200t-48.5 -257.5zM524 1651q0 34 25 59t61 25q35 0 60.5 -25t25.5 -59q0 -36 -25 -61t-61 -25q-37 0 -61.5 24.5t-24.5 61.5zM989 1651q0 34 24.5 59t59.5 25q36 0 61 -25 t25 -59q0 -37 -24.5 -61.5t-61.5 -24.5q-35 0 -59.5 24.5t-24.5 61.5z" />
<glyph unicode="&#xd7;" horiz-adv-x="1429" d="M326 426l311 311l-311 312l75 77l314 -311l313 311l76 -75l-311 -314l313 -313l-78 -76l-313 311l-312 -311z" />
<glyph unicode="&#xd8;" d="M94 717q0 159 58.5 298t158.5 237t237 154t290 56q230 0 415 -121l82 107l82 -62l-82 -108q117 -102 182.5 -246.5t65.5 -314.5q0 -212 -100 -383.5t-270.5 -267t-374.5 -95.5q-224 0 -406 115l-78 -100l-84 63l76 101q-118 102 -185 249t-67 318zM215 717 q0 -146 53 -267.5t148 -207.5l768 1007q-154 99 -346 99q-130 0 -244.5 -46t-198 -127.5t-132 -200t-48.5 -257.5zM500 178q153 -92 338 -92q173 0 315 79t225.5 224t83.5 328q0 288 -196 471z" />
<glyph unicode="&#xd9;" horiz-adv-x="1466" d="M158 582v852h116v-856q0 -247 115.5 -371.5t343.5 -124.5q457 0 457 496v856h119v-852q0 -297 -148.5 -455t-427.5 -158q-281 0 -428 157.5t-147 455.5zM422 1731l47 88l424 -230l-39 -71z" />
<glyph unicode="&#xda;" horiz-adv-x="1466" d="M158 582v852h116v-856q0 -247 115.5 -371.5t343.5 -124.5q457 0 457 496v856h119v-852q0 -297 -148.5 -455t-427.5 -158q-281 0 -428 157.5t-147 455.5zM555 1589l424 230l47 -88l-430 -213z" />
<glyph unicode="&#xdb;" horiz-adv-x="1466" d="M158 582v852h116v-856q0 -247 115.5 -371.5t343.5 -124.5q457 0 457 496v856h119v-852q0 -297 -148.5 -455t-427.5 -158q-281 0 -428 157.5t-147 455.5zM412 1593l325 277l324 -277l-64 -65l-260 223l-262 -223z" />
<glyph unicode="&#xdc;" horiz-adv-x="1466" d="M158 582v852h116v-856q0 -247 115.5 -371.5t343.5 -124.5q457 0 457 496v856h119v-852q0 -297 -148.5 -455t-427.5 -158q-281 0 -428 157.5t-147 455.5zM416 1651q0 34 25 59t61 25q35 0 60.5 -25t25.5 -59q0 -36 -25 -61t-61 -25q-37 0 -61.5 24.5t-24.5 61.5zM881 1651 q0 34 24.5 59t59.5 25q36 0 61 -25t25 -59q0 -37 -24.5 -61.5t-61.5 -24.5q-35 0 -59.5 24.5t-24.5 61.5z" />
<glyph unicode="&#xdd;" horiz-adv-x="1304" d="M37 1434h137l387 -492q91 -117 92 -117h2q1 0 15 18.5t37.5 50t37.5 48.5l385 492h138l-557 -711v-723h-117v723zM469 1589l424 230l47 -88l-430 -213z" />
<glyph unicode="&#xde;" horiz-adv-x="1216" d="M201 0v1434h116v-267h338q206 0 335.5 -124.5t129.5 -321.5q0 -195 -129 -318.5t-336 -123.5h-338v-279h-116zM317 389h340q153 0 247.5 92.5t94.5 239.5q0 150 -94.5 242.5t-247.5 91.5h-340v-666z" />
<glyph unicode="&#xdf;" horiz-adv-x="1542" d="M201 0v1434h1106l-254 -459q-13 -25 -37 -65.5t-41 -68t-17 -28.5l3 -2h14q215 1 344 -114.5t129 -301.5q0 -183 -130 -303.5t-335 -120.5q-157 0 -289.5 77t-195.5 206l110 35q53 -99 152 -156t221 -57q154 0 251 90.5t97 228.5q0 132 -92 226t-260 94h-129v96l192 354 q13 24 36.5 63.5t40 66.5t16.5 28l-3 2l-8 -1q-8 0 -22 -0.5t-32 -1t-43 -1t-50 -0.5h-658v-1321h-116z" />
<glyph unicode="&#xe0;" horiz-adv-x="1472" d="M47 0l637 1434h104l637 -1434h-129l-182 418h-756l-182 -418h-129zM406 522h661l-264 604q-13 31 -29.5 74t-26 67.5t-10.5 24.5h-2q-1 0 -10 -24.5t-25.5 -67.5t-29.5 -74zM420 1731l47 88l424 -230l-39 -71z" />
<glyph unicode="&#xe1;" horiz-adv-x="1472" d="M47 0l637 1434h104l637 -1434h-129l-182 418h-756l-182 -418h-129zM406 522h661l-264 604q-13 31 -29.5 74t-26 67.5t-10.5 24.5h-2q-1 0 -10 -24.5t-25.5 -67.5t-29.5 -74zM553 1589l424 230l47 -88l-430 -213z" />
<glyph unicode="&#xe2;" horiz-adv-x="1472" d="M47 0l637 1434h104l637 -1434h-129l-182 418h-756l-182 -418h-129zM406 522h661l-264 604q-13 31 -29.5 74t-26 67.5t-10.5 24.5h-2q-1 0 -10 -24.5t-25.5 -67.5t-29.5 -74zM410 1593l325 277l324 -277l-64 -65l-260 223l-262 -223z" />
<glyph unicode="&#xe3;" horiz-adv-x="1472" d="M47 0l637 1434h104l637 -1434h-129l-182 418h-756l-182 -418h-129zM399 1577q0 80 56.5 132t142.5 52q41 0 80.5 -18t65.5 -39t58 -39t60 -18q43 0 73.5 28t31.5 70h98q2 -80 -54.5 -132t-144.5 -52q-38 0 -76 18t-64 39t-60 39t-64 18q-44 0 -73 -27.5t-29 -70.5h-101z M406 522h661l-264 604q-13 31 -29.5 74t-26 67.5t-10.5 24.5h-2q-1 0 -10 -24.5t-25.5 -67.5t-29.5 -74z" />
<glyph unicode="&#xe4;" horiz-adv-x="1472" d="M47 0l637 1434h104l637 -1434h-129l-182 418h-756l-182 -418h-129zM406 522h661l-264 604q-13 31 -29.5 74t-26 67.5t-10.5 24.5h-2q-1 0 -10 -24.5t-25.5 -67.5t-29.5 -74zM414 1651q0 34 25 59t61 25q35 0 60.5 -25t25.5 -59q0 -36 -25 -61t-61 -25q-37 0 -61.5 24.5 t-24.5 61.5zM879 1651q0 34 24.5 59t59.5 25q36 0 61 -25t25 -59q0 -37 -24.5 -61.5t-61.5 -24.5q-35 0 -59.5 24.5t-24.5 61.5z" />
<glyph unicode="&#xe5;" horiz-adv-x="1472" d="M47 0l635 1427q-65 19 -105 71.5t-40 121.5q0 85 57.5 143t142.5 58q82 0 141.5 -58.5t59.5 -142.5q0 -68 -41.5 -122t-105.5 -71l634 -1427h-129l-182 418h-756l-182 -418h-129zM406 522h661l-264 604q-13 31 -29.5 74t-26 67.5t-10.5 24.5h-2q-1 0 -10 -24.5 t-25.5 -67.5t-29.5 -74zM614 1620q0 -50 36 -85.5t87 -35.5t87 35.5t36 85.5q0 52 -36 87.5t-87 35.5t-87 -35.5t-36 -87.5z" />
<glyph unicode="&#xe6;" horiz-adv-x="2009" d="M47 0l658 1434h1167v-113h-811v-500h659v-108h-659v-600h823v-113h-942v418h-577l-189 -418h-129zM414 522h528v799h-172q-1 0 -19.5 -43t-49 -114t-48.5 -111z" />
<glyph unicode="&#xe7;" horiz-adv-x="1562" d="M94 717q0 159 58.5 298t158.5 237t237 154t290 56q208 0 380.5 -101t270.5 -274l-119 -30q-80 135 -222 213t-310 78q-175 0 -317 -78.5t-224 -223t-82 -329.5q0 -183 83 -327.5t225 -223t315 -78.5q181 0 329.5 90t225.5 242l116 -33q-88 -188 -263 -300t-394 -116 l-27 -69q93 2 151 -48.5t58 -134.5q0 -83 -57.5 -131.5t-151.5 -48.5h-118l30 76h88q59 0 94 28.5t35 75.5q0 48 -35.5 78.5t-93.5 30.5h-104l51 145q-142 12 -266.5 72.5t-215.5 157t-143.5 230t-52.5 284.5z" />
<glyph unicode="&#xe8;" horiz-adv-x="1267" d="M201 0v1434h932v-113h-816v-500h658v-108h-658v-600h828v-113h-944zM344 1731l47 88l424 -230l-39 -71z" />
<glyph unicode="&#xe9;" horiz-adv-x="1267" d="M201 0v1434h932v-113h-816v-500h658v-108h-658v-600h828v-113h-944zM477 1589l424 230l47 -88l-430 -213z" />
<glyph unicode="&#xea;" horiz-adv-x="1267" d="M201 0v1434h932v-113h-816v-500h658v-108h-658v-600h828v-113h-944zM334 1593l325 277l324 -277l-63 -65l-261 223l-262 -223z" />
<glyph unicode="&#xeb;" horiz-adv-x="1267" d="M201 0v1434h932v-113h-816v-500h658v-108h-658v-600h828v-113h-944zM338 1651q0 34 25 59t61 25q35 0 60.5 -25t25.5 -59q0 -36 -25 -61t-61 -25q-37 0 -61.5 24.5t-24.5 61.5zM803 1651q0 34 24.5 59t59.5 25q36 0 61 -25t25 -59q0 -37 -24.5 -61.5t-61.5 -24.5 q-35 0 -59.5 24.5t-24.5 61.5z" />
<glyph unicode="&#xec;" horiz-adv-x="518" d="M-57 1731l47 88l424 -230l-39 -71zM201 0v1434h116v-1434h-116z" />
<glyph unicode="&#xed;" horiz-adv-x="518" d="M76 1589l424 230l47 -88l-430 -213zM201 0v1434h116v-1434h-116z" />
<glyph unicode="&#xee;" horiz-adv-x="518" d="M-68 1593l326 277l324 -277l-64 -65l-260 223l-262 -223zM201 0v1434h116v-1434h-116z" />
<glyph unicode="&#xef;" horiz-adv-x="518" d="M-63 1651q0 34 25 59t61 25q35 0 60.5 -25t25.5 -59q0 -36 -25 -61t-61 -25q-37 0 -61.5 24.5t-24.5 61.5zM201 0v1434h116v-1434h-116zM401 1651q0 34 24.5 59t59.5 25q36 0 61 -25t25 -59q0 -37 -24.5 -61.5t-61.5 -24.5q-35 0 -59.5 24.5t-24.5 61.5z" />
<glyph unicode="&#xf0;" horiz-adv-x="1638" d="M94 676v110h111v648h596q152 0 288.5 -53.5t236 -147.5t158 -230t58.5 -294q0 -155 -57.5 -288.5t-156 -225t-231 -143.5t-280.5 -52h-612v676h-111zM322 113h495q164 0 300 70.5t220 208t84 317.5q0 138 -49 254t-133.5 194t-197.5 121t-240 43h-479v-535h405v-110h-405 v-563z" />
<glyph unicode="&#xf1;" horiz-adv-x="1542" d="M201 0v1434h110l729 -981l189 -254h2q1 0 -0.5 47.5t-3.5 140.5t-2 176v871h118v-1434h-110l-731 985q-52 72 -100 139t-67 94t-20 27h-2q-1 0 0 -47t2.5 -143t1.5 -183v-872h-116zM438 1577q0 80 56.5 132t142.5 52q41 0 80.5 -18t65.5 -39t58 -39t60 -18q43 0 73.5 28 t31.5 70h98q2 -80 -54.5 -132t-144.5 -52q-38 0 -76 18t-64 39t-60 39t-64 18q-44 0 -73 -27.5t-29 -70.5h-101z" />
<glyph unicode="&#xf2;" d="M94 717q0 159 58.5 298t158.5 237t237 154t290 56t290 -56t237 -154t159 -237t59 -298q0 -212 -100 -383.5t-270.5 -267t-374.5 -95.5q-153 0 -290 56.5t-237 154t-158.5 237t-58.5 298.5zM215 717q0 -137 48.5 -255.5t131.5 -200.5t198 -128.5t245 -46.5q173 0 315 79 t225.5 224t83.5 328q0 184 -83.5 329.5t-225.5 223.5t-315 78q-130 0 -244.5 -46t-198 -127.5t-132 -200t-48.5 -257.5zM526 1731l47 88l424 -230l-39 -71z" />
<glyph unicode="&#xf3;" d="M94 717q0 159 58.5 298t158.5 237t237 154t290 56t290 -56t237 -154t159 -237t59 -298q0 -212 -100 -383.5t-270.5 -267t-374.5 -95.5q-153 0 -290 56.5t-237 154t-158.5 237t-58.5 298.5zM215 717q0 -137 48.5 -255.5t131.5 -200.5t198 -128.5t245 -46.5q173 0 315 79 t225.5 224t83.5 328q0 184 -83.5 329.5t-225.5 223.5t-315 78q-130 0 -244.5 -46t-198 -127.5t-132 -200t-48.5 -257.5zM659 1589l424 230l47 -88l-430 -213z" />
<glyph unicode="&#xf4;" d="M94 717q0 159 58.5 298t158.5 237t237 154t290 56t290 -56t237 -154t159 -237t59 -298q0 -212 -100 -383.5t-270.5 -267t-374.5 -95.5q-153 0 -290 56.5t-237 154t-158.5 237t-58.5 298.5zM215 717q0 -137 48.5 -255.5t131.5 -200.5t198 -128.5t245 -46.5q173 0 315 79 t225.5 224t83.5 328q0 184 -83.5 329.5t-225.5 223.5t-315 78q-130 0 -244.5 -46t-198 -127.5t-132 -200t-48.5 -257.5zM516 1593l326 277l323 -277l-63 -65l-260 223l-262 -223z" />
<glyph unicode="&#xf5;" d="M94 717q0 159 58.5 298t158.5 237t237 154t290 56t290 -56t237 -154t159 -237t59 -298q0 -212 -100 -383.5t-270.5 -267t-374.5 -95.5q-153 0 -290 56.5t-237 154t-158.5 237t-58.5 298.5zM215 717q0 -137 48.5 -255.5t131.5 -200.5t198 -128.5t245 -46.5q173 0 315 79 t225.5 224t83.5 328q0 184 -83.5 329.5t-225.5 223.5t-315 78q-130 0 -244.5 -46t-198 -127.5t-132 -200t-48.5 -257.5zM506 1577q0 80 56.5 132t142.5 52q41 0 80.5 -18t65.5 -39t58 -39t60 -18q43 0 73 28t31 70h98q2 -80 -54 -132t-144 -52q-38 0 -76 18t-64 39t-60 39 t-64 18q-44 0 -73.5 -27.5t-29.5 -70.5h-100z" />
<glyph unicode="&#xf6;" d="M94 717q0 159 58.5 298t158.5 237t237 154t290 56t290 -56t237 -154t159 -237t59 -298q0 -212 -100 -383.5t-270.5 -267t-374.5 -95.5q-153 0 -290 56.5t-237 154t-158.5 237t-58.5 298.5zM215 717q0 -137 48.5 -255.5t131.5 -200.5t198 -128.5t245 -46.5q173 0 315 79 t225.5 224t83.5 328q0 184 -83.5 329.5t-225.5 223.5t-315 78q-130 0 -244.5 -46t-198 -127.5t-132 -200t-48.5 -257.5zM520 1651q0 34 25 59t61 25q35 0 60.5 -25t25.5 -59q0 -36 -25 -61t-61 -25q-37 0 -61.5 24.5t-24.5 61.5zM985 1651q0 34 24.5 59t59.5 25q36 0 61 -25 t25 -59q0 -37 -24.5 -61.5t-61.5 -24.5q-35 0 -59.5 24.5t-24.5 61.5z" />
<glyph unicode="&#xf7;" horiz-adv-x="1429" d="M229 678v102h953v-102h-953zM614 281q0 35 25 59.5t59 24.5q37 0 61.5 -24.5t24.5 -59.5q0 -36 -25 -61t-61 -25q-35 0 -59.5 25.5t-24.5 60.5zM614 1186q0 35 25 59.5t59 24.5q37 0 61.5 -24.5t24.5 -59.5q0 -36 -25 -61t-61 -25q-35 0 -59.5 25.5t-24.5 60.5z" />
<glyph unicode="&#xf8;" d="M94 717q0 159 58.5 298t158.5 237t237 154t290 56q230 0 415 -121l82 107l82 -62l-82 -108q117 -102 182.5 -246.5t65.5 -314.5q0 -212 -100 -383.5t-270.5 -267t-374.5 -95.5q-224 0 -406 115l-78 -100l-84 63l76 101q-118 102 -185 249t-67 318zM215 717 q0 -146 53 -267.5t148 -207.5l768 1007q-154 99 -346 99q-130 0 -244.5 -46t-198 -127.5t-132 -200t-48.5 -257.5zM500 178q153 -92 338 -92q173 0 315 79t225.5 224t83.5 328q0 288 -196 471z" />
<glyph unicode="&#xf9;" horiz-adv-x="1466" d="M158 582v852h116v-856q0 -247 115.5 -371.5t343.5 -124.5q457 0 457 496v856h119v-852q0 -297 -148.5 -455t-427.5 -158q-281 0 -428 157.5t-147 455.5zM422 1731l47 88l424 -230l-39 -71z" />
<glyph unicode="&#xfa;" horiz-adv-x="1466" d="M158 582v852h116v-856q0 -247 115.5 -371.5t343.5 -124.5q457 0 457 496v856h119v-852q0 -297 -148.5 -455t-427.5 -158q-281 0 -428 157.5t-147 455.5zM555 1589l424 230l47 -88l-430 -213z" />
<glyph unicode="&#xfb;" horiz-adv-x="1466" d="M158 582v852h116v-856q0 -247 115.5 -371.5t343.5 -124.5q457 0 457 496v856h119v-852q0 -297 -148.5 -455t-427.5 -158q-281 0 -428 157.5t-147 455.5zM412 1593l325 277l324 -277l-64 -65l-260 223l-262 -223z" />
<glyph unicode="&#xfc;" horiz-adv-x="1466" d="M158 582v852h116v-856q0 -247 115.5 -371.5t343.5 -124.5q457 0 457 496v856h119v-852q0 -297 -148.5 -455t-427.5 -158q-281 0 -428 157.5t-147 455.5zM416 1651q0 34 25 59t61 25q35 0 60.5 -25t25.5 -59q0 -36 -25 -61t-61 -25q-37 0 -61.5 24.5t-24.5 61.5zM881 1651 q0 34 24.5 59t59.5 25q36 0 61 -25t25 -59q0 -37 -24.5 -61.5t-61.5 -24.5q-35 0 -59.5 24.5t-24.5 61.5z" />
<glyph unicode="&#xfd;" horiz-adv-x="1304" d="M37 1434h137l387 -492q91 -117 92 -117h2q1 0 15 18.5t37.5 50t37.5 48.5l385 492h138l-557 -711v-723h-117v723zM469 1589l424 230l47 -88l-430 -213z" />
<glyph unicode="&#xfe;" horiz-adv-x="1216" d="M201 0v1434h116v-267h338q206 0 335.5 -124.5t129.5 -321.5q0 -195 -129 -318.5t-336 -123.5h-338v-279h-116zM317 389h340q153 0 247.5 92.5t94.5 239.5q0 150 -94.5 242.5t-247.5 91.5h-340v-666z" />
<glyph unicode="&#xff;" horiz-adv-x="1304" d="M37 1434h137l387 -492q91 -117 92 -117h2q1 0 15 18.5t37.5 50t37.5 48.5l385 492h138l-557 -711v-723h-117v723zM330 1651q0 34 25 59t61 25q35 0 60.5 -25t25.5 -59q0 -36 -25 -61t-61 -25q-37 0 -61.5 24.5t-24.5 61.5zM795 1651q0 34 24.5 59t59.5 25q36 0 61 -25 t25 -59q0 -37 -24.5 -61.5t-61.5 -24.5q-35 0 -59.5 24.5t-24.5 61.5z" />
<glyph unicode="&#x152;" horiz-adv-x="2017" d="M94 717q0 158 55.5 294t152 230t230 147.5t285.5 53.5q84 0 133 -8h930v-113h-813v-500h657v-108h-657v-600h825v-113h-942q-57 -8 -133 -8q-152 0 -285.5 53.5t-230 147.5t-152 230t-55.5 294zM215 717q0 -275 169 -443t433 -168q75 0 133 21v1180q-56 20 -133 20 q-265 0 -433.5 -166t-168.5 -444z" />
<glyph unicode="&#x153;" horiz-adv-x="2017" d="M94 717q0 158 55.5 294t152 230t230 147.5t285.5 53.5q84 0 133 -8h930v-113h-813v-500h657v-108h-657v-600h825v-113h-942q-57 -8 -133 -8q-152 0 -285.5 53.5t-230 147.5t-152 230t-55.5 294zM215 717q0 -275 169 -443t433 -168q75 0 133 21v1180q-56 20 -133 20 q-265 0 -433.5 -166t-168.5 -444z" />
<glyph unicode="&#x178;" horiz-adv-x="1304" d="M37 1434h137l387 -492q91 -117 92 -117h2q1 0 15 18.5t37.5 50t37.5 48.5l385 492h138l-557 -711v-723h-117v723zM330 1651q0 34 25 59t61 25q35 0 60.5 -25t25.5 -59q0 -36 -25 -61t-61 -25q-37 0 -61.5 24.5t-24.5 61.5zM795 1651q0 34 24.5 59t59.5 25q36 0 61 -25 t25 -59q0 -37 -24.5 -61.5t-61.5 -24.5q-35 0 -59.5 24.5t-24.5 61.5z" />
<glyph unicode="&#x2c6;" horiz-adv-x="778" d="M59 1593l324 277l326 -277l-64 -65l-262 223l-260 -223z" />
<glyph unicode="&#x2dc;" horiz-adv-x="813" d="M68 1577q0 80 56 132t142 52q41 0 80.5 -18t65.5 -39t58 -39t60 -18q43 0 73.5 28t31.5 70h98q2 -80 -54 -132t-144 -52q-48 0 -94.5 28.5t-89 57t-79.5 28.5q-46 0 -75 -27.5t-29 -70.5h-100z" />
<glyph unicode="&#x2000;" horiz-adv-x="935" />
<glyph unicode="&#x2001;" horiz-adv-x="1870" />
<glyph unicode="&#x2002;" horiz-adv-x="935" />
<glyph unicode="&#x2003;" horiz-adv-x="1870" />
<glyph unicode="&#x2004;" horiz-adv-x="623" />
<glyph unicode="&#x2005;" horiz-adv-x="467" />
<glyph unicode="&#x2006;" horiz-adv-x="311" />
<glyph unicode="&#x2007;" horiz-adv-x="311" />
<glyph unicode="&#x2008;" horiz-adv-x="233" />
<glyph unicode="&#x2009;" horiz-adv-x="374" />
<glyph unicode="&#x200a;" horiz-adv-x="103" />
<glyph unicode="&#x2010;" horiz-adv-x="1353" d="M201 678v102h952v-102h-952z" />
<glyph unicode="&#x2011;" horiz-adv-x="1353" d="M201 678v102h952v-102h-952z" />
<glyph unicode="&#x2012;" horiz-adv-x="1353" d="M201 678v102h952v-102h-952z" />
<glyph unicode="&#x2013;" horiz-adv-x="1236" d="M201 672v110h837v-110h-837z" />
<glyph unicode="&#x2014;" horiz-adv-x="2080" d="M201 672v110h1679v-110h-1679z" />
<glyph unicode="&#x2018;" horiz-adv-x="598" d="M201 1153q0 85 40 167t97 142h59q-45 -48 -74.5 -111.5t-29.5 -125.5l-17 -8l17 -3q31 2 56.5 -20.5t25.5 -60.5q0 -37 -26 -61.5t-62 -24.5q-37 0 -61.5 29.5t-24.5 76.5z" />
<glyph unicode="&#x2019;" horiz-adv-x="598" d="M201 1047q45 48 74.5 111.5t29.5 125.5l17 8l-17 2q-31 -2 -56.5 21t-25.5 61q0 37 26 61.5t62 24.5q37 0 61.5 -29.5t24.5 -76.5q0 -85 -40.5 -167t-98.5 -142h-57z" />
<glyph unicode="&#x201a;" horiz-adv-x="598" d="M201 -270q45 48 74.5 111.5t29.5 125.5l17 8l-17 2q-31 -2 -56.5 21t-25.5 61q0 37 26 61.5t62 24.5q37 0 61.5 -29.5t24.5 -76.5q0 -85 -40.5 -167t-98.5 -142h-57z" />
<glyph unicode="&#x201c;" horiz-adv-x="946" d="M201 1153q0 85 40 167t97 142h59q-45 -48 -74.5 -111.5t-29.5 -125.5l-17 -8l17 -3q31 2 56.5 -20.5t25.5 -60.5q0 -37 -26 -61.5t-62 -24.5q-37 0 -61.5 29.5t-24.5 76.5zM549 1153q0 85 40.5 167t98.5 142h60q-45 -48 -75 -111.5t-30 -125.5l-18 -8l18 -3q30 2 56 -21 t26 -60q0 -38 -26 -62t-64 -24q-36 0 -61 30t-25 76z" />
<glyph unicode="&#x201d;" horiz-adv-x="946" d="M201 1047q45 48 74.5 111.5t29.5 125.5l17 8l-17 2q-31 -2 -56.5 21t-25.5 61q0 37 26 61.5t62 24.5q37 0 61.5 -29.5t24.5 -76.5q0 -85 -40.5 -167t-98.5 -142h-57zM549 1047q45 48 74.5 111.5t29.5 125.5l19 8l-19 2q-30 -2 -56 21.5t-26 60.5t26.5 61.5t64.5 24.5 q36 0 61 -30t25 -76q0 -85 -41 -167t-99 -142h-59z" />
<glyph unicode="&#x201e;" horiz-adv-x="911" d="M201 -270q44 46 74 109.5t30 125.5l17 10h-17q-32 0 -57 23t-25 61q0 37 26 60.5t62 23.5q37 0 61.5 -29.5t24.5 -74.5q0 -86 -40.5 -167.5t-98.5 -141.5h-57zM514 -270q44 46 74 109.5t30 125.5l19 10h-19q-31 0 -56 23t-25 61q0 37 26 60.5t64 23.5q36 0 61 -29.5 t25 -74.5q0 -86 -41 -166.5t-99 -142.5h-59z" />
<glyph unicode="&#x2022;" horiz-adv-x="753" d="M201 727q0 73 51.5 124.5t124.5 51.5q74 0 126 -51.5t52 -124.5t-52.5 -125.5t-125.5 -52.5t-124.5 52t-51.5 126z" />
<glyph unicode="&#x2026;" horiz-adv-x="1470" d="M123 41q0 29 21 49.5t49 20.5q30 0 49.5 -20t19.5 -50q0 -31 -20 -50.5t-49 -19.5t-49.5 20.5t-20.5 49.5zM655 41q0 29 21 49.5t49 20.5q30 0 50 -20t20 -50t-20 -50t-50 -20q-29 0 -49.5 20.5t-20.5 49.5zM1208 41q0 29 21 49.5t49 20.5q30 0 50 -20t20 -50t-20 -50 t-50 -20q-29 0 -49.5 20.5t-20.5 49.5z" />
<glyph unicode="&#x202f;" horiz-adv-x="374" />
<glyph unicode="&#x2039;" horiz-adv-x="952" d="M201 721l481 -479l70 69l-416 410l416 409l-70 70z" />
<glyph unicode="&#x203a;" horiz-adv-x="952" d="M201 311l415 410l-415 409l69 70l482 -479l-482 -479z" />
<glyph unicode="&#x205f;" horiz-adv-x="467" />
<glyph unicode="&#x20ac;" horiz-adv-x="1638" d="M94 578v90h88q-2 16 -2 49q0 31 2 45h-88v90h96q46 268 250.5 437t479.5 169q207 0 379 -100.5t268 -272.5l-123 -30q-78 134 -217 210t-307 76q-230 0 -399.5 -133.5t-211.5 -355.5h635v-90h-645q-2 -14 -2 -45q0 -33 2 -49h643v-90h-631q44 -219 213 -352.5t396 -133.5 q181 0 328 88t222 240l117 -31q-90 -192 -267.5 -303t-399.5 -111q-274 0 -477.5 168.5t-249.5 434.5h-99z" />
<glyph unicode="&#x2122;" horiz-adv-x="1607" d="M53 1352v82h576v-82h-246v-584h-86v584h-244zM758 768v666h82l186 -316q18 -30 32 -57.5t19 -39t6 -11.5h2q1 0 6.5 11t20 38t33.5 57l184 318h82v-666h-86v293q0 49 3 109.5t5.5 95t1.5 34.5h-2q-1 0 -8 -13t-23.5 -43t-33.5 -60l-160 -262h-47l-160 262 q-17 30 -33.5 60t-23.5 43t-8 13h-2q-1 0 1.5 -34.5t5.5 -95t3 -109.5v-293h-86z" />
<glyph unicode="&#xe000;" horiz-adv-x="1433" d="M0 0v1434h1434v-1434h-1434z" />
</font>
</defs>
</svg>
